<?xml version="1.0" encoding="UTF-8" standalone="no"?>
<!-- Created with Inkscape (http://www.inkscape.org/) -->

<svg
   width="500"
   height="350"
   viewBox="0 0 132.29166 92.604164"
   version="1.1"
   id="svg5"
   xml:space="preserve"
   inkscape:version="1.2.2 (b0a8486541, 2022-12-01, custom)"
   sodipodi:docname="SocMedHeaderPfade.svg"
   inkscape:export-filename="../b98a846/SocMedHeader.jpg"
   inkscape:export-xdpi="96"
   inkscape:export-ydpi="96"
   xmlns:inkscape="http://www.inkscape.org/namespaces/inkscape"
   xmlns:sodipodi="http://sodipodi.sourceforge.net/DTD/sodipodi-0.dtd"
   xmlns="http://www.w3.org/2000/svg"
   xmlns:svg="http://www.w3.org/2000/svg"><sodipodi:namedview
     id="namedview7"
     pagecolor="#505050"
     bordercolor="#eeeeee"
     borderopacity="1"
     inkscape:showpageshadow="0"
     inkscape:pageopacity="0"
     inkscape:pagecheckerboard="0"
     inkscape:deskcolor="#505050"
     inkscape:document-units="mm"
     showgrid="false"
     inkscape:zoom="1.5162318"
     inkscape:cx="246.33437"
     inkscape:cy="176.75398"
     inkscape:window-width="1920"
     inkscape:window-height="1016"
     inkscape:window-x="0"
     inkscape:window-y="27"
     inkscape:window-maximized="1"
     inkscape:current-layer="layer1" /><defs
     id="defs2" /><g
     inkscape:label="Ebene 1"
     inkscape:groupmode="layer"
     id="layer1"><rect
       style="fill:#ffd42a;stroke:none;stroke-width:0.529167;stroke-linecap:round"
       id="rect241"
       width="132.29167"
       height="92.604164"
       x="0"
       y="0" /><g
       id="g504"
       transform="matrix(1.3369321,0,0,1.3369321,-29.304237,63.190114)"><circle
         style="fill:#ffffff;stroke-width:1.64989"
         id="path61"
         cx="70.471092"
         cy="-23.740898"
         r="13.196471" /><g
         aria-label="JS"
         transform="matrix(1.6498856,0,0,1.6498856,57.1746,-36.941159)"
         id="text169"
         style="font-weight:bold;font-size:8.97873px;line-height:1.25;font-family:Assistant;-inkscape-font-specification:'Assistant, Bold';letter-spacing:1.09px;white-space:pre;inline-size:11.9948;display:inline;stroke-width:0.224468"><path
           d="m 4.7631887,14.406745 q -0.6464686,0 -1.0954051,-0.260384 Q 3.2188471,13.885978 2.922549,13.365212 l 0.8350219,-0.619533 q 0.1705959,0.305277 0.3860854,0.448937 0.2244683,0.14366 0.466894,0.14366 0.3771066,0 0.56566,-0.224469 0.197532,-0.233447 0.197532,-0.835022 V 8.435889 h 1.2300861 v 3.950641 q 0,0.556682 -0.1975321,1.014597 -0.1885533,0.457915 -0.6015749,0.736256 -0.4040429,0.269362 -1.0415327,0.269362 z"
           id="path585" /><path
           d="m 10.84536,14.406745 q -0.574638,0 -1.149277,-0.21549 -0.56566,-0.224468 -1.0056178,-0.63749 l 0.7093197,-0.844 q 0.3142555,0.287319 0.7003411,0.457915 0.395064,0.170596 0.772171,0.170596 0.439957,0 0.664426,-0.161617 0.224468,-0.170596 0.224468,-0.466894 0,-0.206511 -0.116724,-0.323235 -0.107744,-0.125702 -0.305276,-0.215489 -0.188554,-0.09877 -0.448937,-0.206511 L 10.118083,11.632317 Q 9.8217852,11.506615 9.5434445,11.300104 9.2740826,11.093593 9.1034868,10.788316 8.9328909,10.474061 8.9328909,10.043082 q 0,-0.475873 0.2603832,-0.8619584 0.2693619,-0.3860854 0.7272771,-0.6195324 0.4668938,-0.233447 1.0594898,-0.233447 0.511788,0 0.996639,0.1975321 0.493831,0.197532 0.861959,0.56566 L 12.219106,9.8724858 Q 11.931787,9.6390388 11.635489,9.5223153 11.339191,9.3966131 10.980041,9.3966131 q -0.359149,0 -0.583617,0.1526384 -0.21549,0.1526384 -0.21549,0.4220003 0,0.1975322 0.116724,0.3232342 0.116723,0.125702 0.323234,0.224468 0.21549,0.08979 0.466894,0.197532 l 0.754213,0.305277 q 0.35915,0.14366 0.619533,0.359149 0.260383,0.21549 0.404043,0.520767 0.152638,0.296298 0.152638,0.70932 0,0.484851 -0.260383,0.897873 -0.251404,0.404042 -0.745235,0.655447 -0.484851,0.242426 -1.167235,0.242426 z"
           id="path587" /></g><g
         aria-label="SN"
         id="text381"
         style="font-weight:bold;font-size:55.9895px;line-height:1.25;font-family:Assistant;-inkscape-font-specification:'Assistant, Bold';stroke-width:1.39973"
         transform="matrix(0.26458333,0,0,0.26458333,57.273847,-36.937976)"><path
           d="m 31.867622,48.787322 q -3.583328,0 -7.166656,-1.343748 -3.527338,-1.399737 -6.270824,-3.975254 l 4.423171,-5.263013 q 1.959632,1.791664 4.36718,2.855464 2.463538,1.063801 4.815097,1.063801 2.743486,0 4.143223,-1.007811 1.399738,-1.063801 1.399738,-2.911454 0,-1.287759 -0.727864,-2.015622 -0.671874,-0.783853 -1.903643,-1.343748 -1.175779,-0.615885 -2.799475,-1.287759 l -4.815097,-2.071611 q -1.847653,-0.783853 -3.583327,-2.071611 -1.679685,-1.287759 -2.743486,-3.191402 -1.0638,-1.959632 -1.0638,-4.647128 0,-2.967444 1.623695,-5.374992 1.679685,-2.407548 4.535149,-3.863275 2.911454,-1.455727 6.606761,-1.455727 3.191402,0 6.214835,1.231769 3.079422,1.231769 5.374991,3.527338 l -3.863275,4.871086 q -1.791664,-1.455727 -3.639317,-2.18359 -1.847654,-0.783853 -4.087234,-0.783853 -2.23958,0 -3.639317,0.951821 -1.343748,0.951822 -1.343748,2.631507 0,1.231769 0.727863,2.015622 0.727864,0.783853 2.015622,1.399737 1.343748,0.559895 2.911454,1.231769 l 4.703118,1.903643 q 2.23958,0.895832 3.863275,2.23958 1.623696,1.343748 2.519528,3.247391 0.951821,1.847653 0.951821,4.42317 0,3.023433 -1.623695,5.59895 -1.567706,2.519528 -4.647128,4.087234 -3.023433,1.511716 -7.278635,1.511716 z"
           id="path580" /><path
           d="M 51.74379,48.115448 V 11.554306 h 7.894519 l 10.134099,18.98044 3.639318,7.950508 h 0.223958 Q 73.355736,35.5738 73.019799,32.102452 72.683862,28.631103 72.683862,25.439701 V 11.554306 h 7.278635 v 36.561142 h -7.83853 L 61.989868,29.135008 58.294561,21.184499 h -0.223958 q 0.279948,2.967444 0.615885,6.382803 0.391926,3.41536 0.391926,6.550771 v 13.997375 z"
           id="path582" /></g></g><g
       aria-label="UI/UX-Designer &amp; Frontend-Entwickler"
       transform="matrix(0.80781049,0,0,0.87763674,10.428906,7.234327)"
       id="text614"
       style="font-size:6.88519px;line-height:1.25;stroke-width:0.17213"><path
         d="M 13.363925,74.059137 H 12.25541 l -0.447538,3.132762 c -0.08262,0.605897 -0.351144,0.91573 -0.867534,0.91573 -0.495733,0 -0.667863,-0.289178 -0.578356,-0.895075 l 0.440653,-3.153417 H 9.694119 L 9.2465817,77.23321 c -0.1377038,1.005238 0.3786854,1.714412 1.6111343,1.714412 1.218679,0 1.927853,-0.722945 2.058672,-1.693756 z"
         style="font-style:italic;font-weight:bold;font-family:'Fira Sans';-inkscape-font-specification:'Fira Sans Bold Italic'"
         id="path888" /><path
         d="M 15.284885,74.059137 H 14.17637 l -0.667864,4.771437 h 1.108516 z"
         style="font-style:italic;font-weight:bold;font-family:'Fira Sans';-inkscape-font-specification:'Fira Sans Bold Italic'"
         id="path890" /><path
         d="m 17.928791,73.205374 -2.451127,6.16913 0.908845,0.227211 2.458013,-6.176015 z"
         style="font-style:italic;font-weight:bold;font-family:'Fira Sans';-inkscape-font-specification:'Fira Sans Bold Italic'"
         id="path892" /><path
         d="m 23.285458,74.059137 h -1.108516 l -0.447537,3.132762 c -0.08262,0.605897 -0.351145,0.91573 -0.867534,0.91573 -0.495734,0 -0.667863,-0.289178 -0.578356,-0.895075 l 0.440652,-3.153417 h -1.108515 l -0.447538,3.174073 c -0.137704,1.005238 0.378686,1.714412 1.611135,1.714412 1.218678,0 1.927853,-0.722945 2.058672,-1.693756 z"
         style="font-style:italic;font-weight:bold;font-family:'Fira Sans';-inkscape-font-specification:'Fira Sans Bold Italic'"
         id="path894" /><path
         d="m 27.444095,74.059137 h -1.191138 l -0.943271,1.569824 -0.447537,-1.569824 h -1.191138 l 0.90196,2.237687 -1.673101,2.53375 h 1.198023 l 1.046549,-1.859001 0.5577,1.859001 h 1.191138 l -0.998353,-2.568176 z"
         style="font-style:italic;font-weight:bold;font-family:'Fira Sans';-inkscape-font-specification:'Fira Sans Bold Italic'"
         id="path896" /><path
         d="m 27.134255,77.095506 h 2.16195 l 0.117048,-0.839993 h -2.16195 z"
         style="font-style:italic;font-weight:bold;font-family:'Fira Sans';-inkscape-font-specification:'Fira Sans Bold Italic'"
         id="path898" /><path
         d="m 31.747324,74.059137 h -1.294416 l -0.667863,4.771437 h 1.425234 c 2.038017,0 2.698995,-1.411464 2.698995,-2.960632 0,-1.47343 -1.025893,-1.810805 -2.16195,-1.810805 z m 0.06885,0.819338 c 0.550815,0 0.957042,0.17213 0.957042,0.991467 0,0.929501 -0.275408,2.14818 -1.397694,2.14818 h -0.364915 l 0.440652,-3.139647 z"
         style="font-style:italic;font-weight:bold;font-family:'Fira Sans';-inkscape-font-specification:'Fira Sans Bold Italic'"
         id="path900" /><path
         d="m 37.627265,76.055842 c 0,-0.550815 -0.461308,-0.998352 -1.349497,-0.998352 -1.535398,0 -2.072442,1.349497 -2.072442,2.340965 0,0.9295 0.523274,1.549167 1.590478,1.549167 0.564586,0 1.053434,-0.19967 1.452776,-0.488848 l -0.385571,-0.647208 c -0.337374,0.227211 -0.619667,0.337374 -0.929501,0.337374 -0.35803,0 -0.626552,-0.158359 -0.654093,-0.647208 1.149827,-0.117048 2.34785,-0.419996 2.34785,-1.44589 z m -2.299654,0.784912 c 0.09639,-0.523274 0.34426,-1.060319 0.867534,-1.060319 0.268523,0 0.351145,0.17213 0.351145,0.323604 0,0.344259 -0.302948,0.674748 -1.218679,0.736715 z"
         style="font-style:italic;font-weight:bold;font-family:'Fira Sans';-inkscape-font-specification:'Fira Sans Bold Italic'"
         id="path902" /><path
         d="m 39.548226,75.05749 c -1.005237,0 -1.542282,0.550815 -1.542282,1.177367 0,0.54393 0.302948,0.846879 0.929501,1.06032 0.578356,0.19967 0.722945,0.268522 0.722945,0.509504 0,0.19967 -0.179015,0.364915 -0.564586,0.364915 -0.413111,0 -0.743601,-0.17213 -0.984582,-0.385571 l -0.54393,0.564586 c 0.316719,0.344259 0.867534,0.599011 1.521627,0.599011 1.122286,0 1.638675,-0.592126 1.638675,-1.27376 0,-0.571471 -0.337374,-0.908845 -0.950156,-1.108515 -0.557701,-0.179015 -0.709175,-0.240982 -0.709175,-0.433767 0,-0.179015 0.165245,-0.302949 0.488849,-0.302949 0.289178,0 0.599011,0.103278 0.860648,0.282293 l 0.475079,-0.585241 C 40.553464,75.24339 40.099042,75.05749 39.548226,75.05749 Z"
         style="font-style:italic;font-weight:bold;font-family:'Fira Sans';-inkscape-font-specification:'Fira Sans Bold Italic'"
         id="path904" /><path
         d="m 42.267873,74.486019 c 0.399341,0 0.709174,-0.296063 0.709174,-0.688519 0,-0.316719 -0.227211,-0.54393 -0.571471,-0.54393 -0.399341,0 -0.709174,0.289178 -0.709174,0.681634 0,0.316719 0.227211,0.550815 0.571471,0.550815 z m 0.419996,0.688519 h -1.067204 l -0.509504,3.656036 h 1.067204 z"
         style="font-style:italic;font-weight:bold;font-family:'Fira Sans';-inkscape-font-specification:'Fira Sans Bold Italic'"
         id="path906" /><path
         d="m 45.166528,75.05749 c -1.569823,0 -2.127523,1.342612 -2.127523,2.354735 0,0.839993 0.413111,1.418349 1.198023,1.418349 0.392456,0 0.722945,-0.19967 0.963926,-0.475078 l -0.0482,0.351145 c -0.103278,0.716059 -0.488848,0.833108 -0.888189,0.833108 -0.309834,0 -0.654094,-0.103278 -0.991468,-0.289178 l -0.364915,0.709174 c 0.399341,0.247867 0.922616,0.406226 1.377038,0.406226 1.149827,0 1.735068,-0.530159 1.920968,-1.81769 l 0.454423,-3.10522 C 46.185537,75.181423 45.662262,75.05749 45.166528,75.05749 Z m -0.03443,0.771141 c 0.15836,0 0.268523,0.02066 0.413112,0.06885 l -0.254752,1.61802 c -0.206556,0.302948 -0.440652,0.509504 -0.71606,0.509504 -0.234096,0 -0.426882,-0.144589 -0.426882,-0.640323 0,-0.647208 0.254752,-1.556053 0.984582,-1.556053 z"
         style="font-style:italic;font-weight:bold;font-family:'Fira Sans';-inkscape-font-specification:'Fira Sans Bold Italic'"
         id="path908" /><path
         d="m 49.655669,75.05749 c -0.488848,0 -0.936386,0.302948 -1.246219,0.757371 l 0.02065,-0.640323 h -0.9295 l -0.509504,3.656036 H 48.0583 l 0.289178,-2.010475 c 0.254752,-0.51639 0.53016,-0.87442 0.805567,-0.87442 0.15836,0 0.268523,0.09639 0.213441,0.468193 l -0.337374,2.416702 h 1.067204 l 0.364916,-2.643913 C 50.564514,75.477487 50.24091,75.05749 49.655669,75.05749 Z"
         style="font-style:italic;font-weight:bold;font-family:'Fira Sans';-inkscape-font-specification:'Fira Sans Bold Italic'"
         id="path910" /><path
         d="m 54.344478,76.055842 c 0,-0.550815 -0.461308,-0.998352 -1.349498,-0.998352 -1.535397,0 -2.072442,1.349497 -2.072442,2.340965 0,0.9295 0.523275,1.549167 1.590479,1.549167 0.564586,0 1.053434,-0.19967 1.452775,-0.488848 l -0.38557,-0.647208 c -0.337375,0.227211 -0.619668,0.337374 -0.929501,0.337374 -0.35803,0 -0.626552,-0.158359 -0.654093,-0.647208 1.149827,-0.117048 2.34785,-0.419996 2.34785,-1.44589 z m -2.299654,0.784912 c 0.09639,-0.523274 0.34426,-1.060319 0.867534,-1.060319 0.268523,0 0.351145,0.17213 0.351145,0.323604 0,0.344259 -0.302949,0.674748 -1.218679,0.736715 z"
         style="font-style:italic;font-weight:bold;font-family:'Fira Sans';-inkscape-font-specification:'Fira Sans Bold Italic'"
         id="path912" /><path
         d="m 57.029695,75.07126 c -0.399341,0 -0.778026,0.268523 -1.032778,0.784912 l 0.01377,-0.681634 h -0.929501 l -0.509504,3.656036 h 1.067205 l 0.240982,-1.693757 c 0.19967,-0.578356 0.447537,-1.012123 0.901959,-1.012123 0.110163,0 0.192786,0.02066 0.302949,0.0482 l 0.309833,-1.046549 c -0.117048,-0.03443 -0.220326,-0.05508 -0.364915,-0.05508 z"
         style="font-style:italic;font-weight:bold;font-family:'Fira Sans';-inkscape-font-specification:'Fira Sans Bold Italic'"
         id="path914" /><path
         d="m 61.140134,73.942089 c -1.129171,0 -1.535397,0.674749 -1.535397,1.232449 0,0.385571 0.151474,0.667864 0.495734,1.060319 -0.791797,0.461308 -1.07409,0.87442 -1.07409,1.494087 0,0.695404 0.571471,1.218678 1.507857,1.218678 0.585241,0 1.067204,-0.165244 1.535397,-0.523274 l 0.461308,0.523274 0.895074,-0.440652 -0.667863,-0.709174 c 0.282293,-0.337375 0.54393,-0.729831 0.778027,-1.191138 L 62.675532,76.31748 c -0.123934,0.330489 -0.275408,0.633437 -0.440652,0.90196 l -0.798682,-0.87442 c 0.7436,-0.454422 1.094745,-0.819337 1.094745,-1.356382 0,-0.599012 -0.516389,-1.046549 -1.390809,-1.046549 z m -0.02066,0.695404 c 0.234096,0 0.399341,0.137704 0.399341,0.371801 0,0.275407 -0.1859,0.495733 -0.612782,0.764256 -0.199671,-0.234097 -0.289178,-0.406227 -0.289178,-0.619667 0,-0.316719 0.192785,-0.51639 0.502619,-0.51639 z m -0.488849,2.203261 0.943271,1.053434 c -0.247866,0.17213 -0.509504,0.282293 -0.826222,0.282293 -0.392456,0 -0.592127,-0.199671 -0.592127,-0.523274 0,-0.289178 0.08951,-0.537045 0.475078,-0.812453 z"
         style="font-style:italic;font-weight:bold;font-family:'Fira Sans';-inkscape-font-specification:'Fira Sans Bold Italic'"
         id="path916" /><path
         d="M 69.085633,74.059137 H 66.28336 l -0.667863,4.771437 h 1.108516 l 0.268522,-1.893427 h 1.377038 l 0.110163,-0.805567 h -1.377038 l 0.179015,-1.266875 h 1.576709 z"
         style="font-style:italic;font-weight:bold;font-family:'Fira Sans';-inkscape-font-specification:'Fira Sans Bold Italic'"
         id="path918" /><path
         d="m 71.109854,75.07126 c -0.399342,0 -0.778027,0.268523 -1.032779,0.784912 l 0.01377,-0.681634 h -0.9295 l -0.509504,3.656036 h 1.067204 l 0.240982,-1.693757 c 0.19967,-0.578356 0.447537,-1.012123 0.90196,-1.012123 0.110163,0 0.192785,0.02066 0.302948,0.0482 l 0.309834,-1.046549 c -0.117049,-0.03443 -0.220327,-0.05508 -0.364915,-0.05508 z"
         style="font-style:italic;font-weight:bold;font-family:'Fira Sans';-inkscape-font-specification:'Fira Sans Bold Italic'"
         id="path920" /><path
         d="m 72.700318,78.947622 c 1.535397,0 2.031131,-1.328841 2.038016,-2.334079 0.0069,-0.957042 -0.557701,-1.556053 -1.528512,-1.556053 -1.542283,0 -2.038017,1.315071 -2.038017,2.334079 0,0.970812 0.557701,1.556053 1.528513,1.556053 z m 0.07574,-0.798682 c -0.34426,0 -0.509504,-0.206555 -0.509504,-0.688519 0,-0.5577 0.144589,-1.604249 0.867534,-1.604249 0.337374,0 0.509504,0.206556 0.509504,0.688519 -0.0069,0.5577 -0.151475,1.604249 -0.867534,1.604249 z"
         style="font-style:italic;font-weight:bold;font-family:'Fira Sans';-inkscape-font-specification:'Fira Sans Bold Italic'"
         id="path922" /><path
         d="m 77.760932,75.05749 c -0.488848,0 -0.936386,0.302948 -1.246219,0.757371 l 0.02066,-0.640323 h -0.9295 l -0.509504,3.656036 h 1.067204 l 0.289178,-2.010475 c 0.254752,-0.51639 0.53016,-0.87442 0.805567,-0.87442 0.15836,0 0.268523,0.09639 0.213441,0.468193 l -0.337374,2.416702 h 1.067204 l 0.364915,-2.643913 C 78.669777,75.477487 78.346173,75.05749 77.760932,75.05749 Z"
         style="font-style:italic;font-weight:bold;font-family:'Fira Sans';-inkscape-font-specification:'Fira Sans Bold Italic'"
         id="path924" /><path
         d="m 80.570076,75.931909 h 0.71606 l 0.227211,-0.757371 h -0.839993 l 0.130818,-0.91573 -0.922615,0.103278 -0.227211,0.812452 H 79.10353 l -0.103277,0.757371 h 0.502618 l -0.240981,1.686872 c -0.117048,0.853763 0.261637,1.328841 1.019008,1.328841 0.309833,0 0.695404,-0.08951 0.998352,-0.268522 l -0.282292,-0.709175 c -0.151475,0.06885 -0.268523,0.117049 -0.413112,0.117049 -0.206555,0 -0.296063,-0.117049 -0.247867,-0.468193 z"
         style="font-style:italic;font-weight:bold;font-family:'Fira Sans';-inkscape-font-specification:'Fira Sans Bold Italic'"
         id="path926" /><path
         d="m 84.900859,76.055842 c 0,-0.550815 -0.461308,-0.998352 -1.349497,-0.998352 -1.535398,0 -2.072443,1.349497 -2.072443,2.340965 0,0.9295 0.523275,1.549167 1.590479,1.549167 0.564586,0 1.053434,-0.19967 1.452775,-0.488848 l -0.38557,-0.647208 c -0.337375,0.227211 -0.619667,0.337374 -0.929501,0.337374 -0.35803,0 -0.626552,-0.158359 -0.654093,-0.647208 1.149827,-0.117048 2.34785,-0.419996 2.34785,-1.44589 z m -2.299654,0.784912 c 0.09639,-0.523274 0.34426,-1.060319 0.867534,-1.060319 0.268523,0 0.351145,0.17213 0.351145,0.323604 0,0.344259 -0.302948,0.674748 -1.218679,0.736715 z"
         style="font-style:italic;font-weight:bold;font-family:'Fira Sans';-inkscape-font-specification:'Fira Sans Bold Italic'"
         id="path928" /><path
         d="m 87.792632,75.05749 c -0.488848,0 -0.936386,0.302948 -1.246219,0.757371 l 0.02066,-0.640323 h -0.9295 l -0.509504,3.656036 h 1.067204 l 0.289178,-2.010475 c 0.254752,-0.51639 0.53016,-0.87442 0.805567,-0.87442 0.15836,0 0.268523,0.09639 0.213441,0.468193 l -0.337374,2.416702 h 1.067204 l 0.364915,-2.643913 C 88.701477,75.477487 88.377873,75.05749 87.792632,75.05749 Z"
         style="font-style:italic;font-weight:bold;font-family:'Fira Sans';-inkscape-font-specification:'Fira Sans Bold Italic'"
         id="path930" /><path
         d="m 91.889307,73.6116 -0.247867,1.797035 c -0.1859,-0.206556 -0.468193,-0.351145 -0.839993,-0.351145 -1.24622,0 -1.748839,1.418349 -1.748839,2.416702 0,0.91573 0.385571,1.47343 1.149827,1.47343 0.495734,0 0.853764,-0.289178 1.08786,-0.640322 l -0.0069,0.523274 h 0.950156 l 0.71606,-5.108811 z m -0.853764,2.237687 c 0.220326,0 0.3718,0.08951 0.509504,0.261637 l -0.192785,1.363268 c -0.227212,0.364915 -0.481964,0.674748 -0.791797,0.674748 -0.234097,0 -0.399341,-0.151474 -0.399341,-0.667863 0,-0.605897 0.192785,-1.63179 0.874419,-1.63179 z"
         style="font-style:italic;font-weight:bold;font-family:'Fira Sans';-inkscape-font-specification:'Fira Sans Bold Italic'"
         id="path932" /><path
         d="m 93.183715,77.095506 h 2.161949 l 0.117049,-0.839993 h -2.16195 z"
         style="font-style:italic;font-weight:bold;font-family:'Fira Sans';-inkscape-font-specification:'Fira Sans Bold Italic'"
         id="path934" /><path
         d="m 99.387261,74.059137 h -2.884895 l -0.667863,4.771437 h 2.884894 l 0.110163,-0.812452 h -1.769494 l 0.17213,-1.218679 h 1.44589 l 0.103278,-0.791797 h -1.44589 l 0.165245,-1.142941 h 1.652445 z"
         style="font-style:italic;font-weight:bold;font-family:'Fira Sans';-inkscape-font-specification:'Fira Sans Bold Italic'"
         id="path936" /><path
         d="m 101.9692,75.05749 c -0.48885,0 -0.93639,0.302948 -1.24622,0.757371 l 0.0207,-0.640323 h -0.929505 l -0.509504,3.656036 h 1.067209 l 0.28917,-2.010475 c 0.25476,-0.51639 0.53016,-0.87442 0.80557,-0.87442 0.15836,0 0.26852,0.09639 0.21344,0.468193 l -0.33737,2.416702 h 1.0672 l 0.36492,-2.643913 c 0.10327,-0.709174 -0.22033,-1.129171 -0.80557,-1.129171 z"
         style="font-style:italic;font-weight:bold;font-family:'Fira Sans';-inkscape-font-specification:'Fira Sans Bold Italic'"
         id="path938" /><path
         d="m 104.77834,75.931909 h 0.71606 l 0.22721,-0.757371 h -0.83999 l 0.13082,-0.91573 -0.92262,0.103278 -0.22721,0.812452 h -0.55081 l -0.10328,0.757371 h 0.50262 l -0.24098,1.686872 c -0.11705,0.853763 0.26163,1.328841 1.01901,1.328841 0.30983,0 0.6954,-0.08951 0.99835,-0.268522 l -0.2823,-0.709175 c -0.15147,0.06885 -0.26852,0.117049 -0.41311,0.117049 -0.20655,0 -0.29606,-0.117049 -0.24786,-0.468193 z"
         style="font-style:italic;font-weight:bold;font-family:'Fira Sans';-inkscape-font-specification:'Fira Sans Bold Italic'"
         id="path940" /><path
         d="m 110.94747,75.174538 h -1.02589 l -0.83311,2.843584 -0.0964,-2.843584 h -1.03967 l -0.95704,2.843584 0.0207,-2.843584 h -1.07409 l 0.25475,3.656036 h 1.27376 l 0.85376,-2.692109 0.10328,2.692109 h 1.26688 z"
         style="font-style:italic;font-weight:bold;font-family:'Fira Sans';-inkscape-font-specification:'Fira Sans Bold Italic'"
         id="path942" /><path
         d="m 112.04909,74.486019 c 0.39934,0 0.70917,-0.296063 0.70917,-0.688519 0,-0.316719 -0.22721,-0.54393 -0.57147,-0.54393 -0.39934,0 -0.70917,0.289178 -0.70917,0.681634 0,0.316719 0.22721,0.550815 0.57147,0.550815 z m 0.41999,0.688519 h -1.0672 l -0.5095,3.656036 h 1.0672 z"
         style="font-style:italic;font-weight:bold;font-family:'Fira Sans';-inkscape-font-specification:'Fira Sans Bold Italic'"
         id="path944" /><path
         d="m 114.86512,75.05749 c -1.4872,0 -2.0449,1.363268 -2.0449,2.313424 0,0.963926 0.57147,1.576708 1.55605,1.576708 0.48885,0 0.89508,-0.151474 1.25999,-0.419996 l -0.39934,-0.695405 c -0.26852,0.165245 -0.46131,0.254753 -0.72294,0.254753 -0.34426,0 -0.57147,-0.15836 -0.57147,-0.674749 0,-0.619667 0.1859,-1.521627 0.9295,-1.521627 0.23409,0 0.43376,0.06885 0.63343,0.254752 l 0.53016,-0.619667 c -0.30294,-0.309834 -0.70229,-0.468193 -1.17048,-0.468193 z"
         style="font-style:italic;font-weight:bold;font-family:'Fira Sans';-inkscape-font-specification:'Fira Sans Bold Italic'"
         id="path946" /><path
         d="m 117.83264,73.604715 -1.08786,0.117048 -0.71606,5.108811 h 1.07409 l 0.30983,-2.265227 c 0.30295,-0.53016 0.64032,-0.750486 0.92262,-0.750486 0.19967,0 0.30983,0.103278 0.30983,0.302948 0,0.385571 -0.25475,0.688519 -1.06032,0.950156 l 0.66786,1.762609 h 1.17049 l -0.68164,-1.624905 c 0.67475,-0.268522 0.99836,-0.709174 0.99836,-1.27376 0,-0.516389 -0.37869,-0.874419 -0.98459,-0.874419 -0.44065,0 -0.84688,0.17213 -1.21179,0.592126 z"
         style="font-style:italic;font-weight:bold;font-family:'Fira Sans';-inkscape-font-specification:'Fira Sans Bold Italic'"
         id="path948" /><path
         d="m 121.68834,73.604715 -1.07408,0.117048 -0.58525,4.15177 c -0.10327,0.702289 0.22033,1.074089 0.83311,1.074089 0.2341,0 0.48885,-0.0482 0.68852,-0.137704 l -0.13082,-0.75737 c -0.062,0.02066 -0.11705,0.03443 -0.17901,0.03443 -0.11017,0 -0.16525,-0.06197 -0.14459,-0.240982 z"
         style="font-style:italic;font-weight:bold;font-family:'Fira Sans';-inkscape-font-specification:'Fira Sans Bold Italic'"
         id="path950" /><path
         d="m 125.3237,76.055842 c 0,-0.550815 -0.4613,-0.998352 -1.34949,-0.998352 -1.5354,0 -2.07245,1.349497 -2.07245,2.340965 0,0.9295 0.52328,1.549167 1.59048,1.549167 0.56459,0 1.05344,-0.19967 1.45278,-0.488848 l -0.38557,-0.647208 c -0.33738,0.227211 -0.61967,0.337374 -0.9295,0.337374 -0.35803,0 -0.62656,-0.158359 -0.6541,-0.647208 1.14983,-0.117048 2.34785,-0.419996 2.34785,-1.44589 z m -2.29965,0.784912 c 0.0964,-0.523274 0.34426,-1.060319 0.86753,-1.060319 0.26853,0 0.35115,0.17213 0.35115,0.323604 0,0.344259 -0.30295,0.674748 -1.21868,0.736715 z"
         style="font-style:italic;font-weight:bold;font-family:'Fira Sans';-inkscape-font-specification:'Fira Sans Bold Italic'"
         id="path952" /><path
         d="m 128.00892,75.07126 c -0.39934,0 -0.77803,0.268523 -1.03278,0.784912 l 0.0138,-0.681634 h -0.9295 l -0.5095,3.656036 h 1.0672 l 0.24098,-1.693757 c 0.19967,-0.578356 0.44754,-1.012123 0.90196,-1.012123 0.11017,0 0.19279,0.02066 0.30295,0.0482 l 0.30984,-1.046549 c -0.11705,-0.03443 -0.22033,-0.05508 -0.36492,-0.05508 z"
         style="font-style:italic;font-weight:bold;font-family:'Fira Sans';-inkscape-font-specification:'Fira Sans Bold Italic'"
         id="path954" /></g><g
       aria-label="JavaScript-Lernprojekt"
       transform="matrix(0.80781049,0,0,0.87763674,10.428906,7.234327)"
       id="text618"
       style="font-size:10.1536px;line-height:1.25;stroke-width:0.25384"><path
         d="m 19.622287,50.962441 h -1.634729 l -0.832595,5.889088 c -0.11169,0.842749 -0.324915,1.330122 -1.2692,1.685498 l 0.294454,1.187971 c 1.218432,-0.385837 2.355635,-0.995053 2.609475,-2.782086 z"
         style="font-style:italic;font-weight:bold;font-family:'Fira Sans';-inkscape-font-specification:'Fira Sans Bold Italic'"
         id="path812" /><path
         d="m 22.993272,52.434713 c -2.274407,0 -3.086695,2.051028 -3.086695,3.594375 0,1.299661 0.609216,2.142409 1.746419,2.142409 0.720906,0 1.228586,-0.385836 1.604269,-0.923977 0.162458,0.578755 0.659984,0.842749 1.248893,0.893517 l 0.456912,-1.035668 c -0.294455,-0.111689 -0.304608,-0.294454 -0.263994,-0.64983 l 0.497527,-3.452224 c -0.700599,-0.385837 -1.462119,-0.568602 -2.203331,-0.568602 z m -0.04062,1.137204 c 0.233533,0 0.395991,0.03046 0.599063,0.101536 l -0.375684,2.56886 c -0.304608,0.467066 -0.639676,0.751367 -1.025513,0.751367 -0.355376,0 -0.609216,-0.213226 -0.609216,-0.974746 0,-1.045821 0.365529,-2.447017 1.41135,-2.447017 z"
         style="font-style:italic;font-weight:bold;font-family:'Fira Sans';-inkscape-font-specification:'Fira Sans Bold Italic'"
         id="path814" /><path
         d="m 30.963822,52.607325 h -1.66519 l -1.512886,4.173129 -0.375684,-4.173129 h -1.695651 l 0.954439,5.391561 h 1.888569 z"
         style="font-style:italic;font-weight:bold;font-family:'Fira Sans';-inkscape-font-specification:'Fira Sans Bold Italic'"
         id="path816" /><path
         d="m 33.776339,52.434713 c -2.274407,0 -3.086695,2.051028 -3.086695,3.594375 0,1.299661 0.609216,2.142409 1.746419,2.142409 0.720906,0 1.228586,-0.385836 1.604269,-0.923977 0.162458,0.578755 0.659984,0.842749 1.248893,0.893517 l 0.456912,-1.035668 c -0.294455,-0.111689 -0.304608,-0.294454 -0.263994,-0.64983 l 0.497527,-3.452224 c -0.700599,-0.385837 -1.462119,-0.568602 -2.203331,-0.568602 z m -0.04062,1.137204 c 0.233533,0 0.395991,0.03046 0.599062,0.101536 l -0.375683,2.56886 c -0.304608,0.467066 -0.639676,0.751367 -1.025513,0.751367 -0.355376,0 -0.609216,-0.213226 -0.609216,-0.974746 0,-1.045821 0.365529,-2.447017 1.41135,-2.447017 z"
         style="font-style:italic;font-weight:bold;font-family:'Fira Sans';-inkscape-font-specification:'Fira Sans Bold Italic'"
         id="path818" /><path
         d="m 39.665412,50.78983 c -1.878416,0 -2.731318,1.12705 -2.731318,2.193178 0,0.934131 0.538141,1.52304 1.868262,1.969798 0.832596,0.294455 1.106743,0.538141 1.106743,0.995053 0,0.599062 -0.467066,0.954438 -1.238739,0.954438 -0.710752,0 -1.228586,-0.25384 -1.655037,-0.690444 l -0.944285,0.934131 c 0.527987,0.568601 1.350429,1.025513 2.558707,1.025513 2.203331,0 3.005466,-1.309814 3.005466,-2.477478 0,-1.076282 -0.670138,-1.624576 -1.807341,-2.000259 -0.913824,-0.304608 -1.177818,-0.497527 -1.177818,-0.903671 0,-0.487372 0.426452,-0.781827 1.066128,-0.781827 0.538141,0 0.995053,0.172611 1.421504,0.578755 l 0.87321,-0.873209 C 41.432139,51.124899 40.680772,50.78983 39.665412,50.78983 Z"
         style="font-style:italic;font-weight:bold;font-family:'Fira Sans';-inkscape-font-specification:'Fira Sans Bold Italic'"
         id="path820" /><path
         d="m 45.229568,52.434713 c -2.193177,0 -3.015619,2.010413 -3.015619,3.41161 0,1.421504 0.842749,2.325174 2.294714,2.325174 0.720905,0 1.319968,-0.223379 1.858109,-0.619369 l -0.588909,-1.025514 c -0.395991,0.243687 -0.680291,0.375683 -1.066128,0.375683 -0.50768,0 -0.842749,-0.233532 -0.842749,-0.995052 0,-0.913824 0.274147,-2.243946 1.370736,-2.243946 0.345222,0 0.639677,0.101536 0.934131,0.375683 l 0.781827,-0.913824 c -0.446758,-0.456912 -1.035667,-0.690445 -1.726112,-0.690445 z"
         style="font-style:italic;font-weight:bold;font-family:'Fira Sans';-inkscape-font-specification:'Fira Sans Bold Italic'"
         id="path822" /><path
         d="m 50.580508,52.455021 c -0.588909,0 -1.147357,0.39599 -1.52304,1.15751 l 0.02031,-1.005206 h -1.370736 l -0.751366,5.391561 h 1.573808 l 0.355376,-2.497785 c 0.294454,-0.852903 0.659984,-1.49258 1.330121,-1.49258 0.162458,0 0.284301,0.03046 0.446759,0.07108 l 0.456912,-1.543348 c -0.172611,-0.05077 -0.324915,-0.08123 -0.538141,-0.08123 z"
         style="font-style:italic;font-weight:bold;font-family:'Fira Sans';-inkscape-font-specification:'Fira Sans Bold Italic'"
         id="path824" /><path
         d="m 52.641672,51.591965 c 0.588909,0 1.045821,-0.436605 1.045821,-1.01536 0,-0.467066 -0.335069,-0.802135 -0.842749,-0.802135 -0.588909,0 -1.045821,0.426452 -1.045821,1.005207 0,0.467065 0.335069,0.812288 0.842749,0.812288 z m 0.619369,1.01536 h -1.573808 l -0.751366,5.391561 h 1.573808 z"
         style="font-style:italic;font-weight:bold;font-family:'Fira Sans';-inkscape-font-specification:'Fira Sans Bold Italic'"
         id="path826" /><path
         d="m 53.433636,60.263139 1.573808,-0.172611 0.304608,-2.071335 c 0.223379,0.08123 0.517833,0.152304 0.964592,0.152304 2.142409,0 2.863315,-2.081488 2.863315,-3.634988 0,-1.340276 -0.568602,-2.101796 -1.66519,-2.101796 -0.487373,0 -1.035668,0.192919 -1.583962,0.771674 v -0.599062 h -1.391043 z m 2.731318,-3.259306 c -0.274147,0 -0.477219,-0.05077 -0.680291,-0.131996 l 0.36553,-2.639936 c 0.304608,-0.385837 0.639676,-0.61937 1.025513,-0.61937 0.36553,0 0.649831,0.203072 0.649831,0.954438 0,1.01536 -0.36553,2.436864 -1.360583,2.436864 z"
         style="font-style:italic;font-weight:bold;font-family:'Fira Sans';-inkscape-font-specification:'Fira Sans Bold Italic'"
         id="path828" /><path
         d="m 61.952503,53.724221 h 1.055975 l 0.335068,-1.116896 h -1.238739 l 0.192919,-1.350429 -1.360583,0.152304 -0.335068,1.198125 h -0.812288 l -0.152304,1.116896 h 0.741212 l -0.355376,2.487632 c -0.172611,1.259046 0.385837,1.959644 1.502733,1.959644 0.456912,0 1.025514,-0.131996 1.472272,-0.39599 l -0.416298,-1.045821 c -0.223379,0.101536 -0.39599,0.172611 -0.609216,0.172611 -0.304608,0 -0.436604,-0.172611 -0.365529,-0.690444 z"
         style="font-style:italic;font-weight:bold;font-family:'Fira Sans';-inkscape-font-specification:'Fira Sans Bold Italic'"
         id="path830" /><path
         d="m 63.221688,55.440179 h 3.18823 L 66.58253,54.20144 h -3.188231 z"
         style="font-style:italic;font-weight:bold;font-family:'Fira Sans';-inkscape-font-specification:'Fira Sans Bold Italic'"
         id="path832" /><path
         d="m 69.750439,50.962441 h -1.63473 l -0.984899,7.036445 h 4.173129 l 0.345223,-1.319968 h -2.690704 z"
         style="font-style:italic;font-weight:bold;font-family:'Fira Sans';-inkscape-font-specification:'Fira Sans Bold Italic'"
         id="path834" /><path
         d="m 77.061003,53.906985 c 0,-0.812288 -0.680291,-1.472272 -1.990106,-1.472272 -2.264252,0 -3.056233,1.990106 -3.056233,3.452224 0,1.370736 0.771673,2.28456 2.345481,2.28456 0.832596,0 1.553501,-0.294454 2.14241,-0.720905 l -0.568602,-0.954439 c -0.497526,0.335069 -0.913824,0.497527 -1.370736,0.497527 -0.527987,0 -0.923977,-0.233533 -0.964592,-0.954439 1.695652,-0.172611 3.462378,-0.619369 3.462378,-2.132256 z m -3.391302,1.157511 c 0.14215,-0.771674 0.50768,-1.563655 1.279353,-1.563655 0.395991,0 0.517834,0.25384 0.517834,0.47722 0,0.50768 -0.446759,0.995052 -1.797187,1.086435 z"
         style="font-style:italic;font-weight:bold;font-family:'Fira Sans';-inkscape-font-specification:'Fira Sans Bold Italic'"
         id="path836" /><path
         d="m 81.020896,52.455021 c -0.588909,0 -1.147357,0.39599 -1.52304,1.15751 l 0.02031,-1.005206 H 78.14743 l -0.751366,5.391561 h 1.573808 l 0.355376,-2.497785 c 0.294454,-0.852903 0.659984,-1.49258 1.330121,-1.49258 0.162458,0 0.284301,0.03046 0.446759,0.07108 l 0.456912,-1.543348 c -0.172612,-0.05077 -0.324916,-0.08123 -0.538141,-0.08123 z"
         style="font-style:italic;font-weight:bold;font-family:'Fira Sans';-inkscape-font-specification:'Fira Sans Bold Italic'"
         id="path838" /><path
         d="m 85.305698,52.434713 c -0.720906,0 -1.38089,0.446759 -1.837802,1.116896 l 0.03046,-0.944284 H 82.12762 l -0.751366,5.391561 h 1.573808 l 0.426451,-2.964851 c 0.375683,-0.76152 0.781827,-1.289507 1.187971,-1.289507 0.233533,0 0.39599,0.14215 0.314762,0.690445 l -0.497527,3.563913 h 1.573808 l 0.538141,-3.898982 c 0.152304,-1.045821 -0.324915,-1.665191 -1.18797,-1.665191 z"
         style="font-style:italic;font-weight:bold;font-family:'Fira Sans';-inkscape-font-specification:'Fira Sans Bold Italic'"
         id="path840" /><path
         d="m 86.828728,60.263139 1.573808,-0.172611 0.304608,-2.071335 c 0.223379,0.08123 0.517834,0.152304 0.964592,0.152304 2.142409,0 2.863315,-2.081488 2.863315,-3.634988 0,-1.340276 -0.568602,-2.101796 -1.66519,-2.101796 -0.487373,0 -1.035668,0.192919 -1.583962,0.771674 v -0.599062 h -1.391043 z m 2.731318,-3.259306 c -0.274147,0 -0.477219,-0.05077 -0.680291,-0.131996 l 0.36553,-2.639936 c 0.304608,-0.385837 0.639676,-0.61937 1.025513,-0.61937 0.36553,0 0.649831,0.203072 0.649831,0.954438 0,1.01536 -0.36553,2.436864 -1.360583,2.436864 z"
         style="font-style:italic;font-weight:bold;font-family:'Fira Sans';-inkscape-font-specification:'Fira Sans Bold Italic'"
         id="path842" /><path
         d="m 96.667556,52.455021 c -0.588909,0 -1.147357,0.39599 -1.52304,1.15751 l 0.02031,-1.005206 H 93.79409 l -0.751366,5.391561 h 1.573807 l 0.355376,-2.497785 c 0.294455,-0.852903 0.659984,-1.49258 1.330122,-1.49258 0.162458,0 0.284301,0.03046 0.446758,0.07108 l 0.456912,-1.543348 c -0.172611,-0.05077 -0.324915,-0.08123 -0.53814,-0.08123 z"
         style="font-style:italic;font-weight:bold;font-family:'Fira Sans';-inkscape-font-specification:'Fira Sans Bold Italic'"
         id="path844" /><path
         d="m 99.013017,58.171497 c 2.264253,0 2.995313,-1.959644 3.005463,-3.44207 0.0102,-1.41135 -0.82244,-2.294714 -2.254097,-2.294714 -2.274406,0 -3.005465,1.939338 -3.005465,3.442071 0,1.431657 0.822441,2.294713 2.254099,2.294713 z m 0.11169,-1.177817 c -0.50768,0 -0.751367,-0.304608 -0.751367,-1.01536 0,-0.822442 0.213226,-2.365789 1.279354,-2.365789 0.497526,0 0.751366,0.304608 0.751366,1.01536 -0.0101,0.822442 -0.22338,2.365789 -1.279353,2.365789 z"
         style="font-style:italic;font-weight:bold;font-family:'Fira Sans';-inkscape-font-specification:'Fira Sans Bold Italic'"
         id="path846" /><path
         d="m 104.25226,51.591965 c 0.58891,0 1.04582,-0.436605 1.04582,-1.01536 0,-0.467066 -0.33506,-0.802135 -0.84274,-0.802135 -0.58891,0 -1.04583,0.426452 -1.04583,1.005207 0,0.467065 0.33507,0.812288 0.84275,0.812288 z m -2.56886,8.66102 c 1.29966,-0.467065 2.26426,-1.086435 2.50794,-2.843008 l 0.67014,-4.802652 h -1.57381 l -0.67014,4.863574 c -0.14215,0.984899 -0.55844,1.330121 -1.33012,1.644883 z"
         style="font-style:italic;font-weight:bold;font-family:'Fira Sans';-inkscape-font-specification:'Fira Sans Bold Italic'"
         id="path848" /><path
         d="m 110.42565,53.906985 c 0,-0.812288 -0.68029,-1.472272 -1.99011,-1.472272 -2.26425,0 -3.05623,1.990106 -3.05623,3.452224 0,1.370736 0.77167,2.28456 2.34548,2.28456 0.8326,0 1.5535,-0.294454 2.14241,-0.720905 l -0.5686,-0.954439 c -0.49753,0.335069 -0.91382,0.497527 -1.37074,0.497527 -0.52798,0 -0.92397,-0.233533 -0.96459,-0.954439 1.69565,-0.172611 3.46238,-0.619369 3.46238,-2.132256 z m -3.3913,1.157511 c 0.14215,-0.771674 0.50768,-1.563655 1.27935,-1.563655 0.39599,0 0.51783,0.25384 0.51783,0.47722 0,0.50768 -0.44675,0.995052 -1.79718,1.086435 z"
         style="font-style:italic;font-weight:bold;font-family:'Fira Sans';-inkscape-font-specification:'Fira Sans Bold Italic'"
         id="path850" /><path
         d="m 113.4108,50.292304 -1.60427,0.172611 -1.05598,7.533971 h 1.58397 l 0.45691,-3.340534 c 0.44676,-0.781827 0.94428,-1.106743 1.36058,-1.106743 0.29445,0 0.45691,0.152304 0.45691,0.446759 0,0.568601 -0.37568,1.01536 -1.56365,1.401197 l 0.9849,2.599321 h 1.72611 l -1.00521,-2.396249 c 0.99506,-0.395991 1.47227,-1.045821 1.47227,-1.878416 0,-0.76152 -0.55844,-1.289508 -1.45196,-1.289508 -0.64983,0 -1.24889,0.25384 -1.78703,0.87321 z"
         style="font-style:italic;font-weight:bold;font-family:'Fira Sans';-inkscape-font-specification:'Fira Sans Bold Italic'"
         id="path852" /><path
         d="m 118.85312,53.724221 h 1.05597 l 0.33507,-1.116896 h -1.23874 l 0.19292,-1.350429 -1.36058,0.152304 -0.33507,1.198125 h -0.81229 l -0.1523,1.116896 h 0.74121 l -0.35537,2.487632 c -0.17262,1.259046 0.38583,1.959644 1.50273,1.959644 0.45691,0 1.02551,-0.131996 1.47227,-0.39599 l -0.4163,-1.045821 c -0.22338,0.101536 -0.39599,0.172611 -0.60921,0.172611 -0.30461,0 -0.43661,-0.172611 -0.36553,-0.690444 z"
         style="font-style:italic;font-weight:bold;font-family:'Fira Sans';-inkscape-font-specification:'Fira Sans Bold Italic'"
         id="path854" /></g><g
       aria-label="Sascha Nabrotzky"
       transform="matrix(0.80781049,0,0,0.87763674,10.428906,7.234327)"
       id="text622"
       style="font-size:6.88519px;line-height:1.25;stroke-width:0.17213"><path
         d="m 42.465874,65.159878 c -1.27376,0 -1.852116,0.764256 -1.852116,1.487201 0,0.633437 0.364915,1.032778 1.266875,1.335727 0.564585,0.19967 0.750485,0.364915 0.750485,0.674748 0,0.406227 -0.316718,0.647208 -0.839993,0.647208 -0.481963,0 -0.833108,-0.17213 -1.122286,-0.468193 l -0.640323,0.633438 c 0.35803,0.38557 0.915731,0.695404 1.735068,0.695404 1.494087,0 2.038017,-0.88819 2.038017,-1.679986 0,-0.729831 -0.454423,-1.101631 -1.225564,-1.356383 -0.619667,-0.206556 -0.798682,-0.337374 -0.798682,-0.612782 0,-0.330489 0.289178,-0.530159 0.722945,-0.530159 0.364915,0 0.674748,0.117048 0.963926,0.392455 l 0.592127,-0.592126 c -0.392456,-0.399341 -0.90196,-0.626552 -1.590479,-0.626552 z"
         style="font-style:italic;font-weight:bold;font-family:'Fira Sans';-inkscape-font-specification:'Fira Sans Bold Italic'"
         id="path857" /><path
         d="m 46.280258,66.275279 c -1.542283,0 -2.093098,1.390808 -2.093098,2.437357 0,0.881304 0.413111,1.452775 1.184253,1.452775 0.488848,0 0.833108,-0.261637 1.08786,-0.626552 0.110163,0.392456 0.447537,0.57147 0.846878,0.605896 l 0.309834,-0.702289 c -0.199671,-0.07574 -0.206556,-0.19967 -0.179015,-0.440652 l 0.337374,-2.340965 c -0.475078,-0.261637 -0.991467,-0.38557 -1.494086,-0.38557 z m -0.02754,0.771141 c 0.158359,0 0.268522,0.02066 0.406226,0.06885 l -0.254752,1.741953 c -0.206555,0.316719 -0.433767,0.509504 -0.695404,0.509504 -0.240982,0 -0.413111,-0.144589 -0.413111,-0.660978 0,-0.709175 0.247866,-1.659331 0.957041,-1.659331 z"
         style="font-style:italic;font-weight:bold;font-family:'Fira Sans';-inkscape-font-specification:'Fira Sans Bold Italic'"
         id="path859" /><path
         d="m 49.805465,66.275279 c -1.005237,0 -1.542282,0.550815 -1.542282,1.177367 0,0.54393 0.302948,0.846878 0.9295,1.060319 0.578356,0.199671 0.722945,0.268523 0.722945,0.509504 0,0.199671 -0.179015,0.364915 -0.564585,0.364915 -0.413112,0 -0.743601,-0.172129 -0.984582,-0.38557 l -0.54393,0.564585 c 0.316718,0.34426 0.867534,0.599012 1.521627,0.599012 1.122286,0 1.638675,-0.592126 1.638675,-1.27376 0,-0.571471 -0.337374,-0.908845 -0.950156,-1.108516 -0.557701,-0.179015 -0.709175,-0.240981 -0.709175,-0.433767 0,-0.179015 0.165245,-0.302948 0.488849,-0.302948 0.289178,0 0.599011,0.103278 0.860648,0.282293 l 0.475078,-0.585241 c -0.337374,-0.282293 -0.791796,-0.468193 -1.342612,-0.468193 z"
         style="font-style:italic;font-weight:bold;font-family:'Fira Sans';-inkscape-font-specification:'Fira Sans Bold Italic'"
         id="path861" /><path
         d="m 53.433957,66.275279 c -1.487201,0 -2.044901,1.363267 -2.044901,2.313423 0,0.963927 0.57147,1.576709 1.556053,1.576709 0.488848,0 0.895074,-0.151474 1.259989,-0.419997 L 53.805757,69.05001 c -0.268522,0.165245 -0.461307,0.254752 -0.722945,0.254752 -0.344259,0 -0.57147,-0.158359 -0.57147,-0.674748 0,-0.619668 0.1859,-1.521627 0.9295,-1.521627 0.234097,0 0.433767,0.06885 0.633438,0.254752 l 0.530159,-0.619667 C 54.301491,66.433638 53.90215,66.275279 53.433957,66.275279 Z"
         style="font-style:italic;font-weight:bold;font-family:'Fira Sans';-inkscape-font-specification:'Fira Sans Bold Italic'"
         id="path863" /><path
         d="m 57.255234,66.275279 c -0.475079,0 -0.90196,0.296063 -1.163598,0.72983 l 0.302949,-2.17572 -1.080975,0.110163 -0.71606,5.108811 h 1.067205 l 0.282292,-2.010476 c 0.261638,-0.516389 0.537045,-0.874419 0.819338,-0.874419 0.158359,0 0.261637,0.09639 0.206556,0.468193 l -0.337375,2.416702 h 1.067205 l 0.3718,-2.650798 c 0.09639,-0.70229 -0.227211,-1.122286 -0.819337,-1.122286 z"
         style="font-style:italic;font-weight:bold;font-family:'Fira Sans';-inkscape-font-specification:'Fira Sans Bold Italic'"
         id="path865" /><path
         d="m 60.615203,66.275279 c -1.542283,0 -2.093098,1.390808 -2.093098,2.437357 0,0.881304 0.413111,1.452775 1.184253,1.452775 0.488848,0 0.833108,-0.261637 1.08786,-0.626552 0.110163,0.392456 0.447537,0.57147 0.846878,0.605896 l 0.309834,-0.702289 c -0.199671,-0.07574 -0.206556,-0.19967 -0.179015,-0.440652 l 0.337374,-2.340965 c -0.475078,-0.261637 -0.991467,-0.38557 -1.494086,-0.38557 z m -0.02754,0.771141 c 0.158359,0 0.268522,0.02066 0.406226,0.06885 l -0.254752,1.741953 c -0.206556,0.316719 -0.433767,0.509504 -0.695404,0.509504 -0.240982,0 -0.413111,-0.144589 -0.413111,-0.660978 0,-0.709175 0.247866,-1.659331 0.957041,-1.659331 z"
         style="font-style:italic;font-weight:bold;font-family:'Fira Sans';-inkscape-font-specification:'Fira Sans Bold Italic'"
         id="path867" /><path
         d="m 68.31283,65.276926 h -0.984583 l -0.268522,1.879657 c -0.110163,0.798682 -0.103278,1.294416 -0.06885,1.955394 l -0.90196,-3.835051 h -1.390808 l -0.667864,4.771437 h 0.984583 l 0.240981,-1.693757 c 0.130819,-0.929501 0.123934,-1.549168 0.103278,-2.141294 l 0.881304,3.835051 h 1.404579 z"
         style="font-style:italic;font-weight:bold;font-family:'Fira Sans';-inkscape-font-specification:'Fira Sans Bold Italic'"
         id="path869" /><path
         d="m 70.619365,66.275279 c -1.542283,0 -2.093098,1.390808 -2.093098,2.437357 0,0.881304 0.413111,1.452775 1.184253,1.452775 0.488848,0 0.833108,-0.261637 1.08786,-0.626552 0.110163,0.392456 0.447537,0.57147 0.846878,0.605896 l 0.309833,-0.702289 c -0.19967,-0.07574 -0.206555,-0.19967 -0.179014,-0.440652 l 0.337374,-2.340965 c -0.475078,-0.261637 -0.991468,-0.38557 -1.494086,-0.38557 z m -0.02754,0.771141 c 0.158359,0 0.268522,0.02066 0.406226,0.06885 l -0.254752,1.741953 c -0.206556,0.316719 -0.433767,0.509504 -0.695404,0.509504 -0.240982,0 -0.413112,-0.144589 -0.413112,-0.660978 0,-0.709175 0.247867,-1.659331 0.957042,-1.659331 z"
         style="font-style:italic;font-weight:bold;font-family:'Fira Sans';-inkscape-font-specification:'Fira Sans Bold Italic'"
         id="path871" /><path
         d="m 74.984567,66.275279 c -0.364916,0 -0.729831,0.158359 -1.005238,0.426881 l 0.261637,-1.879656 -1.080975,0.117048 -0.688519,4.922911 c 0.495734,0.192785 0.963927,0.302948 1.500972,0.302948 1.693756,0 2.134409,-1.411464 2.134409,-2.464898 0,-0.908845 -0.392456,-1.425234 -1.122286,-1.425234 z m -0.413112,0.798682 c 0.240982,0 0.433767,0.137703 0.433767,0.647208 0,0.688519 -0.240982,1.652445 -0.922615,1.652445 -0.1859,0 -0.316719,-0.03443 -0.461308,-0.08951 l 0.247867,-1.79015 c 0.206555,-0.261637 0.433767,-0.419996 0.702289,-0.419996 z"
         style="font-style:italic;font-weight:bold;font-family:'Fira Sans';-inkscape-font-specification:'Fira Sans Bold Italic'"
         id="path873" /><path
         d="m 78.909119,66.289049 c -0.399341,0 -0.778026,0.268522 -1.032778,0.784912 l 0.01377,-0.681634 h -0.9295 l -0.509504,3.656036 h 1.067204 l 0.240982,-1.693757 c 0.19967,-0.578356 0.447537,-1.012123 0.90196,-1.012123 0.110163,0 0.192785,0.02066 0.302948,0.0482 l 0.309833,-1.046548 c -0.117048,-0.03443 -0.220326,-0.05508 -0.364915,-0.05508 z"
         style="font-style:italic;font-weight:bold;font-family:'Fira Sans';-inkscape-font-specification:'Fira Sans Bold Italic'"
         id="path875" /><path
         d="m 80.49958,70.165411 c 1.535397,0 2.031131,-1.328842 2.038016,-2.334079 0.0069,-0.957042 -0.5577,-1.556053 -1.528512,-1.556053 -1.542283,0 -2.038017,1.315071 -2.038017,2.334079 0,0.970812 0.557701,1.556053 1.528513,1.556053 z m 0.07574,-0.798682 c -0.34426,0 -0.509504,-0.206556 -0.509504,-0.688519 0,-0.5577 0.144589,-1.604249 0.867534,-1.604249 0.337374,0 0.509504,0.206555 0.509504,0.688519 -0.0069,0.5577 -0.151474,1.604249 -0.867534,1.604249 z"
         style="font-style:italic;font-weight:bold;font-family:'Fira Sans';-inkscape-font-specification:'Fira Sans Bold Italic'"
         id="path877" /><path
         d="m 84.45856,67.149698 h 0.71606 l 0.227211,-0.757371 h -0.839993 l 0.130818,-0.91573 -0.922615,0.103277 -0.227211,0.812453 h -0.550816 l -0.103277,0.757371 h 0.502618 l -0.240981,1.686871 c -0.117048,0.853764 0.261637,1.328842 1.019008,1.328842 0.309833,0 0.695404,-0.08951 0.998352,-0.268522 l -0.282292,-0.709175 c -0.151475,0.06885 -0.268523,0.117048 -0.413112,0.117048 -0.206555,0 -0.296063,-0.117048 -0.247867,-0.468193 z"
         style="font-style:italic;font-weight:bold;font-family:'Fira Sans';-inkscape-font-specification:'Fira Sans Bold Italic'"
         id="path879" /><path
         d="m 88.52082,66.392327 h -2.726536 l -0.117048,0.819337 h 1.404579 l -1.838346,2.065557 -0.103278,0.771142 h 2.809158 L 88.16279,69.22214 h -1.576709 l 1.831461,-2.065557 z"
         style="font-style:italic;font-weight:bold;font-family:'Fira Sans';-inkscape-font-specification:'Fira Sans Bold Italic'"
         id="path881" /><path
         d="m 90.372931,64.822504 -1.08786,0.117048 -0.716059,5.108811 h 1.074089 l 0.309834,-2.265228 c 0.302948,-0.530159 0.640322,-0.750485 0.922615,-0.750485 0.199671,0 0.309834,0.103277 0.309834,0.302948 0,0.385571 -0.254752,0.688519 -1.06032,0.950156 l 0.667864,1.762609 h 1.170482 l -0.681634,-1.624905 c 0.674749,-0.268523 0.998353,-0.709175 0.998353,-1.27376 0,-0.51639 -0.378686,-0.874419 -0.984582,-0.874419 -0.440652,0 -0.846879,0.172129 -1.211794,0.592126 z"
         style="font-style:italic;font-weight:bold;font-family:'Fira Sans';-inkscape-font-specification:'Fira Sans Bold Italic'"
         id="path883" /><path
         d="m 96.10141,66.392327 h -1.1154 l -1.108516,2.953746 -0.240982,-2.953746 h -1.115401 l 0.585242,3.656036 h 0.378685 c -0.275408,0.475078 -0.571471,0.674748 -1.28753,0.764256 l 0.02754,0.764256 c 1.129171,-0.06197 1.859002,-0.592126 2.265228,-1.514742 z"
         style="font-style:italic;font-weight:bold;font-family:'Fira Sans';-inkscape-font-specification:'Fira Sans Bold Italic'"
         id="path885" /></g><path
       style="fill:none;stroke:#000000;stroke-width:0.222779px;stroke-linecap:butt;stroke-linejoin:miter;stroke-opacity:1"
       d="M 18.521912,61.350969 H 113.44072"
       id="path678"
       sodipodi:nodetypes="cc" /></g></svg>
