<?xml version="1.0" encoding="UTF-8" standalone="no"?>
<!-- Created with Inkscape (http://www.inkscape.org/) -->

<svg
   width="500"
   height="350"
   viewBox="0 0 132.29166 92.604164"
   version="1.1"
   id="svg5"
   xml:space="preserve"
   xmlns="http://www.w3.org/2000/svg"
   xmlns:svg="http://www.w3.org/2000/svg"><defs
     id="defs2" /><g
     id="layer1"><rect
       style="fill:#ffd42a;stroke:none;stroke-width:0.529167;stroke-linecap:round"
       id="rect241"
       width="132.29167"
       height="92.604164"
       x="0"
       y="0" /><g
       id="g504"
       transform="matrix(1.5878051,0,0,1.5878051,-47.189,66.455796)"><circle
         style="fill:#ffffff;stroke-width:1.64989"
         id="path61"
         cx="70.471092"
         cy="-23.740898"
         r="13.196471" /><g
         aria-label="JS"
         transform="matrix(1.6498856,0,0,1.6498856,57.1746,-36.941159)"
         id="text169"
         style="font-weight:bold;font-size:8.97873px;line-height:1.25;font-family:Assistant;-inkscape-font-specification:'Assistant, Bold';letter-spacing:1.09px;white-space:pre;inline-size:11.9948;display:inline;stroke-width:0.224468"><path
           d="m 4.7631887,14.406745 q -0.6464686,0 -1.0954051,-0.260384 Q 3.2188471,13.885978 2.922549,13.365212 l 0.8350219,-0.619533 q 0.1705959,0.305277 0.3860854,0.448937 0.2244683,0.14366 0.466894,0.14366 0.3771066,0 0.56566,-0.224469 0.197532,-0.233447 0.197532,-0.835022 V 8.435889 h 1.2300861 v 3.950641 q 0,0.556682 -0.1975321,1.014597 -0.1885533,0.457915 -0.6015749,0.736256 -0.4040429,0.269362 -1.0415327,0.269362 z"
           id="path585" /><path
           d="m 10.84536,14.406745 q -0.574638,0 -1.149277,-0.21549 -0.56566,-0.224468 -1.0056178,-0.63749 l 0.7093197,-0.844 q 0.3142555,0.287319 0.7003411,0.457915 0.395064,0.170596 0.772171,0.170596 0.439957,0 0.664426,-0.161617 0.224468,-0.170596 0.224468,-0.466894 0,-0.206511 -0.116724,-0.323235 -0.107744,-0.125702 -0.305276,-0.215489 -0.188554,-0.09877 -0.448937,-0.206511 L 10.118083,11.632317 Q 9.8217852,11.506615 9.5434445,11.300104 9.2740826,11.093593 9.1034868,10.788316 8.9328909,10.474061 8.9328909,10.043082 q 0,-0.475873 0.2603832,-0.8619584 0.2693619,-0.3860854 0.7272771,-0.6195324 0.4668938,-0.233447 1.0594898,-0.233447 0.511788,0 0.996639,0.1975321 0.493831,0.197532 0.861959,0.56566 L 12.219106,9.8724858 Q 11.931787,9.6390388 11.635489,9.5223153 11.339191,9.3966131 10.980041,9.3966131 q -0.359149,0 -0.583617,0.1526384 -0.21549,0.1526384 -0.21549,0.4220003 0,0.1975322 0.116724,0.3232342 0.116723,0.125702 0.323234,0.224468 0.21549,0.08979 0.466894,0.197532 l 0.754213,0.305277 q 0.35915,0.14366 0.619533,0.359149 0.260383,0.21549 0.404043,0.520767 0.152638,0.296298 0.152638,0.70932 0,0.484851 -0.260383,0.897873 -0.251404,0.404042 -0.745235,0.655447 -0.484851,0.242426 -1.167235,0.242426 z"
           id="path587" /></g><g
         aria-label="SN"
         id="text381"
         style="font-weight:bold;font-size:55.9895px;line-height:1.25;font-family:Assistant;-inkscape-font-specification:'Assistant, Bold';stroke-width:1.39973"
         transform="matrix(0.26458333,0,0,0.26458333,57.273847,-36.937976)"><path
           d="m 31.867622,48.787322 q -3.583328,0 -7.166656,-1.343748 -3.527338,-1.399737 -6.270824,-3.975254 l 4.423171,-5.263013 q 1.959632,1.791664 4.36718,2.855464 2.463538,1.063801 4.815097,1.063801 2.743486,0 4.143223,-1.007811 1.399738,-1.063801 1.399738,-2.911454 0,-1.287759 -0.727864,-2.015622 -0.671874,-0.783853 -1.903643,-1.343748 -1.175779,-0.615885 -2.799475,-1.287759 l -4.815097,-2.071611 q -1.847653,-0.783853 -3.583327,-2.071611 -1.679685,-1.287759 -2.743486,-3.191402 -1.0638,-1.959632 -1.0638,-4.647128 0,-2.967444 1.623695,-5.374992 1.679685,-2.407548 4.535149,-3.863275 2.911454,-1.455727 6.606761,-1.455727 3.191402,0 6.214835,1.231769 3.079422,1.231769 5.374991,3.527338 l -3.863275,4.871086 q -1.791664,-1.455727 -3.639317,-2.18359 -1.847654,-0.783853 -4.087234,-0.783853 -2.23958,0 -3.639317,0.951821 -1.343748,0.951822 -1.343748,2.631507 0,1.231769 0.727863,2.015622 0.727864,0.783853 2.015622,1.399737 1.343748,0.559895 2.911454,1.231769 l 4.703118,1.903643 q 2.23958,0.895832 3.863275,2.23958 1.623696,1.343748 2.519528,3.247391 0.951821,1.847653 0.951821,4.42317 0,3.023433 -1.623695,5.59895 -1.567706,2.519528 -4.647128,4.087234 -3.023433,1.511716 -7.278635,1.511716 z"
           id="path580" /><path
           d="M 51.74379,48.115448 V 11.554306 h 7.894519 l 10.134099,18.98044 3.639318,7.950508 h 0.223958 Q 73.355736,35.5738 73.019799,32.102452 72.683862,28.631103 72.683862,25.439701 V 11.554306 h 7.278635 v 36.561142 h -7.83853 L 61.989868,29.135008 58.294561,21.184499 h -0.223958 q 0.279948,2.967444 0.615885,6.382803 0.391926,3.41536 0.391926,6.550771 v 13.997375 z"
           id="path582" /></g></g><text
       xml:space="preserve"
       style="font-style:normal;font-weight:normal;font-size:6.88519px;line-height:1.25;font-family:sans-serif;fill:#000000;fill-opacity:1;stroke:none;stroke-width:0.17213"
       x="8.9092073"
       y="78.830574"
       id="text614"
       transform="scale(0.95939477,1.0423238)"><tspan
         id="tspan612"
         style="font-style:italic;font-variant:normal;font-weight:bold;font-stretch:normal;font-family:'Fira Sans';-inkscape-font-specification:'Fira Sans Bold Italic';stroke-width:0.17213"
         x="8.9092073"
         y="78.830574">UI/UX-Designer &amp; Frontend-Entwickler</tspan></text><text
       xml:space="preserve"
       style="font-style:normal;font-weight:normal;font-size:10.1536px;line-height:1.25;font-family:sans-serif;fill:#000000;fill-opacity:1;stroke:none;stroke-width:0.25384"
       x="16.484825"
       y="57.998886"
       id="text618"
       transform="scale(0.95939477,1.0423238)"><tspan
         id="tspan616"
         style="font-style:italic;font-variant:normal;font-weight:bold;font-stretch:normal;font-family:'Fira Sans';-inkscape-font-specification:'Fira Sans Bold Italic';stroke-width:0.25384"
         x="16.484825"
         y="57.998886">JavaScript-Lernprojekt</tspan></text><text
       xml:space="preserve"
       style="font-style:normal;font-weight:normal;font-size:6.88519px;line-height:1.25;font-family:sans-serif;fill:#000000;fill-opacity:1;stroke:none;stroke-width:0.17213"
       x="40.13868"
       y="70.048363"
       id="text622"
       transform="scale(0.95939477,1.0423238)"><tspan
         id="tspan620"
         style="font-style:italic;font-variant:normal;font-weight:bold;font-stretch:normal;font-family:'Fira Sans';-inkscape-font-specification:'Fira Sans Bold Italic';stroke-width:0.17213"
         x="40.13868"
         y="70.048363">Sascha Nabrotzky</tspan></text><path
       style="fill:none;stroke:#000000;stroke-width:0.264583px;stroke-linecap:butt;stroke-linejoin:miter;stroke-opacity:1"
       d="M 9.6116445,64.271539 H 122.34181"
       id="path678" /></g></svg>
